<svg width="17" height="21" viewBox="0 0 17 21" fill="none" xmlns="http://www.w3.org/2000/svg">
<path fill-rule="evenodd" clip-rule="evenodd" d="M8.3462 5.56481C8.4594 5.66462 8.6104 5.7103 8.76 5.68997C9.7611 5.50537 10.6566 4.95234 11.27 4.13997C11.8664 3.38728 12.2156 2.46873 12.27 1.50997C12.2745 1.35109 12.2046 1.19921 12.0811 1.09921C11.9576 0.999199 11.7945 0.962509 11.64 0.999969C10.6751 1.25193 9.8121 1.79697 9.17 2.55997C8.5599 3.29704 8.2086 4.21395 8.17 5.16997C8.1686 5.32091 8.2329 5.465 8.3462 5.56481ZM15.7025 8.22549C15.1109 8.78066 14.18 9.6542 14.18 11.51C14.1661 13.1669 15.076 14.6938 16.54 15.47C16.7211 15.5518 16.8382 15.7313 16.84 15.93C16.84 16 14.74 21 12.22 21C11.6683 21 11.3006 20.8261 10.8979 20.6357C10.41 20.405 9.8705 20.15 8.89 20.15C7.9236 20.15 7.3828 20.3977 6.88507 20.6257C6.46094 20.82 6.06815 21 5.47001 21C3.15001 21 1.11186e-05 16.14 1.11186e-05 11.75C-0.0398489 10.51 0.268461 9.2837 0.890011 8.20997C1.76661 6.7243 3.32762 5.77494 5.05001 5.67997C5.86168 5.67997 6.52612 5.91887 7.1546 6.14484C7.7186 6.34761 8.2536 6.53997 8.84 6.53997C9.3999 6.53997 9.8517 6.36465 10.3473 6.17233C10.9495 5.9387 11.6163 5.67997 12.62 5.67997C14.45 5.67997 16.18 6.99997 16.18 7.58997C16.18 7.77744 15.9781 7.96693 15.7025 8.22549Z" fill="black"/>
</svg>
