<svg width="20" height="21" viewBox="0 0 20 21" fill="none" xmlns="http://www.w3.org/2000/svg">
<path d="M9.99973 17.5C10.9457 17.5 11.8097 17.397 12.5977 17.219L10.8407 15.462C10.5677 15.483 10.2907 15.5 9.99973 15.5C4.64874 15.5 2.57573 11.654 2.07373 10.5C2.45068 9.65878 2.95978 8.88331 3.58173 8.20297L2.18373 6.80497C0.645735 8.47197 0.0627348 10.151 0.0517348 10.184C-0.0172449 10.3893 -0.0172449 10.6116 0.0517348 10.817C0.0727348 10.883 2.36673 17.5 9.99973 17.5ZM9.99973 3.49997C8.16273 3.49997 6.65373 3.89597 5.39573 4.48097L1.70673 0.792969L0.292735 2.20697L18.2927 20.207L19.7067 18.793L16.3877 15.474C19.0017 13.523 19.9347 10.859 19.9487 10.817C20.0177 10.6116 20.0177 10.3893 19.9487 10.184C19.9267 10.117 17.6327 3.49997 9.99973 3.49997ZM14.9717 14.058L12.6917 11.778C12.8817 11.388 12.9997 10.959 12.9997 10.5C12.9997 8.85897 11.6407 7.49997 9.99973 7.49997C9.54074 7.49997 9.11173 7.61797 8.72273 7.80897L6.91473 6.00097C7.90725 5.66038 8.95044 5.49097 9.99973 5.49997C15.3507 5.49997 17.4237 9.34597 17.9257 10.5C17.6237 11.192 16.7597 12.842 14.9717 14.058Z" fill="black"/>
</svg>
