<svg width="22" height="14" viewBox="0 0 22 14" fill="none" xmlns="http://www.w3.org/2000/svg">
<path d="M11.0003 4C10.2063 4.00524 9.44625 4.32299 8.88478 4.88447C8.3233 5.44595 8.00555 6.20597 8.00031 7C8.00031 8.642 9.3583 10 11.0003 10C12.6413 10 14.0003 8.642 14.0003 7C14.0003 5.359 12.6413 4 11.0003 4Z" fill="black"/>
<path d="M11.0003 0C3.36729 0 1.07329 6.617 1.05229 6.684L0.946289 7L1.05129 7.316C1.07329 7.383 3.36729 14 11.0003 14C18.6333 14 20.9273 7.383 20.9483 7.316L21.0543 7L20.9493 6.684C20.9273 6.617 18.6333 0 11.0003 0ZM11.0003 12C5.64929 12 3.57629 8.154 3.07429 7C3.57829 5.842 5.65229 2 11.0003 2C16.3513 2 18.4243 5.846 18.9263 7C18.4223 8.158 16.3483 12 11.0003 12Z" fill="black"/>
</svg>
