<svg width="16" height="21" viewBox="0 0 16 21" fill="none" xmlns="http://www.w3.org/2000/svg">
<path d="M8 0.5C5.243 0.5 3 2.743 3 5.5V7.5H2C0.897 7.5 0 8.397 0 9.5V18.5C0 19.603 0.897 20.5 2 20.5H14C15.103 20.5 16 19.603 16 18.5V9.5C16 8.397 15.103 7.5 14 7.5H13V5.5C13 2.743 10.757 0.5 8 0.5ZM5 5.5C5 3.846 6.346 2.5 8 2.5C9.654 2.5 11 3.846 11 5.5V7.5H5V5.5ZM14.002 18.5H9V16.222C9.595 15.875 10 15.237 10 14.5C10 13.397 9.103 12.5 8 12.5C6.897 12.5 6 13.397 6 14.5C6 15.236 6.405 15.875 7 16.222V18.5H2V9.5H14L14.002 18.5Z" fill="black"/>
</svg>
